<svg width="1000" height="185" viewBox="0 0 1000 185" fill="none" xmlns="http://www.w3.org/2000/svg">
<g clip-path="url(#clip0_101_25)">
<path d="M183.11 100.58C168.7 105.04 136.07 115.04 112.59 115.04C84.03 115.04 119.41 77.8899 97.43 77.8899C67.86 77.8899 16.14 108.71 4.21 115.43C1.6 116.9 0 119.66 0 122.65V145.25V184.06L27.2 145.25H174.92C181.96 145.25 187.66 139.55 187.66 132.51V103.93C187.66 101.57 185.37 99.8799 183.11 100.58Z" fill="white"/>
<path d="M174.92 10.03H93.83L24.92 10.31C23.92 4.48 18.84 0 12.74 0C5.92 0 0.339996 5.58 0.339996 12.4V53.61C0.339996 53.65 0.349996 53.69 0.349996 53.74L0.339996 78.58C0.349996 81.63 3.64 83.53 6.29 82.02C24.88 71.41 83.13 39.98 121.02 39.98C150.5 39.98 105.01 78.02 134.62 78.02C152.24 78.02 174.46 71.84 183.52 67.71C186.04 66.56 187.65 64.05 187.65 61.29V22.77C187.66 15.74 181.95 10.03 174.92 10.03Z" fill="white"/>
<path d="M258.44 146.75V9.11989H288.75V22.0399C297.69 11.2799 309.62 5.88989 324.52 5.88989C334.12 5.88989 342.07 7.54989 348.37 10.8599C354.66 14.1699 360.21 19.6399 365.01 27.2599C375.77 13.0199 390.43 5.89989 408.98 5.89989C446.24 5.89989 464.88 26.3599 464.88 67.2599V146.76H431.84V71.2299C431.84 58.9799 429.81 50.0699 425.75 44.5199C421.69 38.9699 415.11 36.1999 406 36.1999C396.06 36.1999 388.94 39.4699 384.64 46.0099C380.33 52.5499 378.18 63.5199 378.18 78.9299V146.75H345.14V71.2299C345.14 58.9799 343.03 50.0699 338.8 44.5199C334.58 38.9699 327.83 36.1999 318.55 36.1999C308.61 36.1999 301.61 39.3899 297.56 45.7599C293.5 52.1399 291.47 63.1899 291.47 78.9299V146.75H258.44Z" fill="white"/>
<path d="M620.9 92.5899H514.32C516.31 100.87 520.65 107.46 527.36 112.34C534.07 117.23 542.39 119.67 552.33 119.67C559.29 119.67 565 118.68 569.47 116.69C573.94 114.7 578.33 111.14 582.64 106.01H618.66C614.52 118.93 606.32 129.49 594.07 137.69C581.81 145.89 568.15 149.99 553.08 149.99C532.21 149.99 514.57 143.12 500.17 129.37C485.76 115.62 478.56 98.6499 478.56 78.4399C478.56 58.2399 485.6 41.0899 499.68 27.0199C513.75 12.9399 530.9 5.8999 551.11 5.8999C571.64 5.8999 588.62 12.8599 602.04 26.7699C615.46 40.6799 622.16 58.4099 622.16 79.9299C622.14 84.3999 621.73 88.6199 620.9 92.5899ZM513.33 63.5299H589.6C585.29 45.3099 572.71 36.1999 551.84 36.1999C531.46 36.1999 518.63 45.3099 513.33 63.5299Z" fill="white"/>
<path d="M772.44 92.5899H665.86C667.85 100.87 672.19 107.46 678.9 112.34C685.61 117.23 693.93 119.67 703.87 119.67C710.83 119.67 716.54 118.68 721.01 116.69C725.48 114.7 729.87 111.14 734.18 106.01H770.2C766.06 118.93 757.86 129.49 745.61 137.69C733.35 145.89 719.69 149.99 704.62 149.99C683.75 149.99 666.11 143.12 651.71 129.37C637.3 115.62 630.1 98.6499 630.1 78.4399C630.1 58.2399 637.14 41.0899 651.22 27.0199C665.29 12.9399 682.44 5.8999 702.65 5.8999C723.18 5.8999 740.16 12.8599 753.58 26.7699C767 40.6799 773.7 58.4099 773.7 79.9299C773.68 84.3999 773.27 88.6199 772.44 92.5899ZM664.87 63.5299H741.14C736.83 45.3099 724.25 36.1999 703.38 36.1999C683 36.1999 670.17 45.3099 664.87 63.5299Z" fill="white"/>
<path d="M787.59 146.75V9.11989H817.9V22.5299C822.21 16.2399 826.51 11.8899 830.82 9.48989C835.13 7.08989 840.67 5.88989 847.46 5.88989H850.19V37.6899C830.48 37.6899 820.63 48.5399 820.63 70.2299V146.75H787.59Z" fill="white"/>
<path d="M926.71 5.88989C947.24 5.88989 964.6 12.8899 978.76 26.8799C992.92 40.8799 1000 57.9799 1000 78.1799C1000 97.8899 992.88 114.78 978.64 128.86C964.39 142.94 947.17 149.98 926.97 149.98C906.76 149.98 889.5 142.99 875.17 128.99C860.84 115 853.68 97.9799 853.68 77.9399C853.68 58.0599 860.8 41.0899 875.04 27.0099C889.28 12.9299 906.5 5.88989 926.71 5.88989ZM926.71 36.1999C915.71 36.1999 906.29 40.2599 898.46 48.3699C890.63 56.4899 886.71 66.3399 886.71 77.9299C886.71 89.5199 890.62 99.3799 898.46 107.49C906.29 115.61 915.71 119.66 926.71 119.66C937.87 119.66 947.37 115.6 955.21 107.49C963.04 99.3799 966.96 89.5199 966.96 77.9299C966.96 66.3399 963.04 56.4799 955.21 48.3699C947.38 40.2599 937.88 36.1999 926.71 36.1999Z" fill="white"/>
</g>
<defs>
<clipPath id="clip0_101_25">
<rect width="1000" height="184.06" fill="white"/>
</clipPath>
</defs>
</svg>
